[b][color=black]The.Vampire.Diaries.S03E17.HDTV [H264] [MPEG-4]-Sebastian[Ub3r]

Format                           : MPEG-4
Format profile                   : Base Media / Version 2
Codec ID                         : mp42
File size                        : 154 MiB
Duration                         : 41mn 50s
Overall bit rate                 : 515 Kbps
Encoded date                     : UTC 2012-09-20 18:12:05
Tagged date                      : UTC 2012-09-20 18:21:29

Video
ID                               : 1
Format                           : AVC
Format/Info                      : Advanced Video Codec
Format profile                   : Main@L3.0
Format settings, CABAC           : Yes
Format settings, ReFrames        : 4 frames
Codec ID                         : avc1
Codec ID/Info                    : Advanced Video Coding
Duration                         : 41mn 50s
Bit rate mode                    : Variable
Bit rate                         : 382 Kbps
Width                            : 624 pixels
Height                           : 352 pixels
Display aspect ratio             : 16:9
Frame rate mode                  : Variable
Frame rate                       : 23.976 fps
Minimum frame rate               : 23.974 fps
Maximum frame rate               : 90 000.000 fps
Color space                      : YUV
Chroma subsampling               : 4:2:0
Bit depth                        : 8 bits
Scan type                        : Progressive
Bits/(Pixel*Frame)               : 0.072
Stream size                      : 114 MiB (74%)
Writing library                  : x264 core 120
Encoded date                     : UTC 2012-09-20 18:12:05
Tagged date                      : UTC 2012-09-20 18:21:28

Audio
ID                               : 2
Format                           : AAC
Format/Info                      : Advanced Audio Codec
Format profile                   : LC
Codec ID                         : 40
Duration                         : 41mn 50s
Bit rate mode                    : Variable
Bit rate                         : 128 Kbps
Maximum bit rate                 : 178 Kbps
Channel(s)                       : 2 channels
Channel positions                : Front: L R
Sampling rate                    : 48.0 KHz
Compression mode                 : Lossy
Stream size                      : 38.3 MiB (25%)
Encoded date                     : UTC 2012-09-20 18:12:05
Tagged date                      : UTC 2012-09-20 18:21:27

Snapshots[/color][/b]
[img]http://imageshack.us/a/img14/856/thevampirediariess03e17.jpg[/img]

[img]http://kastatic.com/i2/users/133df62bbf28e62494bb17fe11078f1a.gif[/img][img]http://kastatic.com/i2/users/133df62bbf28e62494bb17fe11078f1a.gif[/img]